<mxfile host="app.diagrams.net" modified="2020-11-21T13:17:33.796Z" agent="5.0 (X11)" etag="vJd7iRcosIfsHQqae2GC" version="13.10.0" type="github">
  <diagram id="SHDkYa4FAMaZ_01luneU" name="Page-1">
    <mxGraphModel dx="1022" dy="695" grid="1" gridSize="10" guides="1" tooltips="1" connect="1" arrows="1" fold="1" page="1" pageScale="1" pageWidth="850" pageHeight="1100" math="0" shadow="0">
      <root>
        <mxCell id="0" />
        <mxCell id="1" parent="0" />
        <mxCell id="k4fH5lc6j6lI32jM6RB4-1" value="&lt;u&gt;GUI&lt;/u&gt;" style="rounded=0;whiteSpace=wrap;html=1;" vertex="1" parent="1">
          <mxGeometry x="270" y="10" width="100" height="30" as="geometry" />
        </mxCell>
        <mxCell id="k4fH5lc6j6lI32jM6RB4-2" value="" style="rounded=0;whiteSpace=wrap;html=1;" vertex="1" parent="1">
          <mxGeometry x="120" y="80" width="150" height="110" as="geometry" />
        </mxCell>
        <mxCell id="k4fH5lc6j6lI32jM6RB4-3" value="&lt;u&gt;c1 : Customer&lt;/u&gt;" style="text;html=1;strokeColor=none;fillColor=none;align=center;verticalAlign=middle;whiteSpace=wrap;rounded=0;" vertex="1" parent="1">
          <mxGeometry x="130" y="80" width="130" height="20" as="geometry" />
        </mxCell>
        <mxCell id="k4fH5lc6j6lI32jM6RB4-4" value="" style="endArrow=none;html=1;exitX=0;exitY=0;exitDx=0;exitDy=0;entryX=1;entryY=0.182;entryDx=0;entryDy=0;entryPerimeter=0;" edge="1" parent="1" source="k4fH5lc6j6lI32jM6RB4-5" target="k4fH5lc6j6lI32jM6RB4-2">
          <mxGeometry width="50" height="50" relative="1" as="geometry">
            <mxPoint x="160" y="150" as="sourcePoint" />
            <mxPoint x="210" y="100" as="targetPoint" />
            <Array as="points">
              <mxPoint x="240" y="100" />
            </Array>
          </mxGeometry>
        </mxCell>
        <mxCell id="k4fH5lc6j6lI32jM6RB4-5" value="&lt;div align=&quot;left&quot;&gt;&lt;br&gt;&lt;/div&gt;&lt;div align=&quot;left&quot;&gt;- Name :Harrison&lt;/div&gt;&lt;div align=&quot;left&quot;&gt;&lt;br&gt;&lt;/div&gt;&lt;div align=&quot;left&quot;&gt;&lt;br&gt;&lt;/div&gt;&lt;div align=&quot;left&quot;&gt;- Address : Anna Nagar,&lt;/div&gt;&lt;div align=&quot;left&quot;&gt;Chennai, Tamil Nadu&lt;br&gt;&lt;/div&gt;&lt;div align=&quot;left&quot;&gt;&lt;br&gt;&lt;/div&gt;&lt;div align=&quot;left&quot;&gt;&lt;br&gt;&lt;/div&gt;" style="text;html=1;strokeColor=none;fillColor=none;align=left;verticalAlign=middle;whiteSpace=wrap;rounded=0;" vertex="1" parent="1">
          <mxGeometry x="120" y="100" width="150" height="90" as="geometry" />
        </mxCell>
        <mxCell id="k4fH5lc6j6lI32jM6RB4-6" style="edgeStyle=orthogonalEdgeStyle;rounded=0;orthogonalLoop=1;jettySize=auto;html=1;exitX=0.5;exitY=1;exitDx=0;exitDy=0;" edge="1" parent="1" source="k4fH5lc6j6lI32jM6RB4-2" target="k4fH5lc6j6lI32jM6RB4-2">
          <mxGeometry relative="1" as="geometry" />
        </mxCell>
        <mxCell id="k4fH5lc6j6lI32jM6RB4-7" value="" style="rounded=0;whiteSpace=wrap;html=1;" vertex="1" parent="1">
          <mxGeometry x="120" y="220" width="150" height="90" as="geometry" />
        </mxCell>
        <mxCell id="k4fH5lc6j6lI32jM6RB4-8" value="l1 : Login" style="text;html=1;strokeColor=none;fillColor=none;align=center;verticalAlign=middle;whiteSpace=wrap;rounded=0;fontStyle=4" vertex="1" parent="1">
          <mxGeometry x="130" y="220" width="130" height="20" as="geometry" />
        </mxCell>
        <mxCell id="k4fH5lc6j6lI32jM6RB4-9" value="&lt;div align=&quot;left&quot;&gt;&lt;br&gt;&lt;/div&gt;&lt;div align=&quot;left&quot;&gt;- Id : harry@gamil.com&lt;br&gt;&lt;/div&gt;&lt;div align=&quot;left&quot;&gt;&lt;br&gt;&lt;/div&gt;&lt;div align=&quot;left&quot;&gt;- Password : harry2321&lt;br&gt;&lt;/div&gt;&lt;div align=&quot;left&quot;&gt;&lt;br&gt;&lt;/div&gt;&lt;div align=&quot;left&quot;&gt;&lt;br&gt;&lt;/div&gt;" style="text;html=1;strokeColor=none;fillColor=none;align=left;verticalAlign=middle;whiteSpace=wrap;rounded=0;" vertex="1" parent="1">
          <mxGeometry x="120" y="245" width="150" height="60" as="geometry" />
        </mxCell>
        <mxCell id="k4fH5lc6j6lI32jM6RB4-10" style="edgeStyle=orthogonalEdgeStyle;rounded=0;orthogonalLoop=1;jettySize=auto;html=1;exitX=0.5;exitY=1;exitDx=0;exitDy=0;" edge="1" parent="1" source="k4fH5lc6j6lI32jM6RB4-7" target="k4fH5lc6j6lI32jM6RB4-7">
          <mxGeometry relative="1" as="geometry" />
        </mxCell>
        <mxCell id="k4fH5lc6j6lI32jM6RB4-11" value="" style="endArrow=none;html=1;exitX=0;exitY=0.25;exitDx=0;exitDy=0;entryX=1;entryY=0.25;entryDx=0;entryDy=0;" edge="1" parent="1" source="k4fH5lc6j6lI32jM6RB4-7" target="k4fH5lc6j6lI32jM6RB4-7">
          <mxGeometry width="50" height="50" relative="1" as="geometry">
            <mxPoint x="30" y="280" as="sourcePoint" />
            <mxPoint x="80" y="230" as="targetPoint" />
          </mxGeometry>
        </mxCell>
        <mxCell id="k4fH5lc6j6lI32jM6RB4-12" value="" style="rounded=0;whiteSpace=wrap;html=1;" vertex="1" parent="1">
          <mxGeometry x="370" y="220" width="150" height="90" as="geometry" />
        </mxCell>
        <mxCell id="k4fH5lc6j6lI32jM6RB4-13" value="&lt;u&gt;l2 : Login&lt;/u&gt;" style="text;html=1;strokeColor=none;fillColor=none;align=center;verticalAlign=middle;whiteSpace=wrap;rounded=0;" vertex="1" parent="1">
          <mxGeometry x="380" y="220" width="130" height="20" as="geometry" />
        </mxCell>
        <mxCell id="k4fH5lc6j6lI32jM6RB4-14" value="&lt;div align=&quot;left&quot;&gt;&lt;br&gt;&lt;/div&gt;&lt;div align=&quot;left&quot;&gt;- Id : jenny@gamil.com&lt;br&gt;&lt;/div&gt;&lt;div align=&quot;left&quot;&gt;&lt;br&gt;&lt;/div&gt;&lt;div align=&quot;left&quot;&gt;- Password : jenniferqueen&lt;br&gt;&lt;/div&gt;&lt;div align=&quot;left&quot;&gt;&lt;br&gt;&lt;/div&gt;&lt;div align=&quot;left&quot;&gt;&lt;br&gt;&lt;/div&gt;" style="text;html=1;strokeColor=none;fillColor=none;align=left;verticalAlign=middle;whiteSpace=wrap;rounded=0;" vertex="1" parent="1">
          <mxGeometry x="370" y="245" width="150" height="60" as="geometry" />
        </mxCell>
        <mxCell id="k4fH5lc6j6lI32jM6RB4-15" style="edgeStyle=orthogonalEdgeStyle;rounded=0;orthogonalLoop=1;jettySize=auto;html=1;exitX=0.5;exitY=1;exitDx=0;exitDy=0;" edge="1" parent="1">
          <mxGeometry relative="1" as="geometry">
            <mxPoint x="445" y="320" as="sourcePoint" />
            <mxPoint x="445" y="320" as="targetPoint" />
          </mxGeometry>
        </mxCell>
        <mxCell id="k4fH5lc6j6lI32jM6RB4-16" value="" style="endArrow=none;html=1;exitX=0;exitY=0.25;exitDx=0;exitDy=0;entryX=1;entryY=0.25;entryDx=0;entryDy=0;" edge="1" parent="1" source="k4fH5lc6j6lI32jM6RB4-12" target="k4fH5lc6j6lI32jM6RB4-12">
          <mxGeometry width="50" height="50" relative="1" as="geometry">
            <mxPoint x="280" y="280" as="sourcePoint" />
            <mxPoint x="330" y="230" as="targetPoint" />
          </mxGeometry>
        </mxCell>
        <mxCell id="k4fH5lc6j6lI32jM6RB4-17" value="" style="endArrow=classic;startArrow=classic;html=1;exitX=0.5;exitY=0;exitDx=0;exitDy=0;" edge="1" parent="1" source="k4fH5lc6j6lI32jM6RB4-13">
          <mxGeometry width="50" height="50" relative="1" as="geometry">
            <mxPoint x="580" y="260" as="sourcePoint" />
            <mxPoint x="445.0000000000002" y="190" as="targetPoint" />
          </mxGeometry>
        </mxCell>
        <mxCell id="k4fH5lc6j6lI32jM6RB4-18" value="" style="endArrow=classic;startArrow=classic;html=1;exitX=0.5;exitY=0;exitDx=0;exitDy=0;" edge="1" parent="1">
          <mxGeometry width="50" height="50" relative="1" as="geometry">
            <mxPoint x="189" y="220" as="sourcePoint" />
            <mxPoint x="189" y="190" as="targetPoint" />
          </mxGeometry>
        </mxCell>
        <mxCell id="k4fH5lc6j6lI32jM6RB4-19" value="" style="endArrow=none;html=1;exitX=0.5;exitY=0;exitDx=0;exitDy=0;entryX=0.5;entryY=1;entryDx=0;entryDy=0;" edge="1" parent="1" source="k4fH5lc6j6lI32jM6RB4-2" target="k4fH5lc6j6lI32jM6RB4-1">
          <mxGeometry width="50" height="50" relative="1" as="geometry">
            <mxPoint x="300" y="100" as="sourcePoint" />
            <mxPoint x="350" y="50" as="targetPoint" />
            <Array as="points">
              <mxPoint x="195" y="70" />
              <mxPoint x="320" y="70" />
            </Array>
          </mxGeometry>
        </mxCell>
        <mxCell id="k4fH5lc6j6lI32jM6RB4-20" value="" style="endArrow=none;html=1;" edge="1" parent="1">
          <mxGeometry width="50" height="50" relative="1" as="geometry">
            <mxPoint x="450.0000000000002" y="79.99999999999989" as="sourcePoint" />
            <mxPoint x="310" y="69.99999999999989" as="targetPoint" />
            <Array as="points">
              <mxPoint x="450" y="70" />
            </Array>
          </mxGeometry>
        </mxCell>
        <mxCell id="k4fH5lc6j6lI32jM6RB4-21" value="logs in" style="text;html=1;align=center;verticalAlign=middle;resizable=0;points=[];autosize=1;" vertex="1" parent="1">
          <mxGeometry x="188" y="196" width="50" height="20" as="geometry" />
        </mxCell>
        <mxCell id="k4fH5lc6j6lI32jM6RB4-22" value="" style="endArrow=classic;html=1;" edge="1" parent="1">
          <mxGeometry width="50" height="50" relative="1" as="geometry">
            <mxPoint x="238" y="201" as="sourcePoint" />
            <mxPoint x="238" y="211" as="targetPoint" />
          </mxGeometry>
        </mxCell>
        <mxCell id="k4fH5lc6j6lI32jM6RB4-23" value="" style="endArrow=classic;html=1;" edge="1" parent="1">
          <mxGeometry width="50" height="50" relative="1" as="geometry">
            <mxPoint x="500.0000000000002" y="201" as="sourcePoint" />
            <mxPoint x="500.0000000000002" y="211" as="targetPoint" />
          </mxGeometry>
        </mxCell>
        <mxCell id="k4fH5lc6j6lI32jM6RB4-26" value="logs in" style="text;html=1;align=center;verticalAlign=middle;resizable=0;points=[];autosize=1;" vertex="1" parent="1">
          <mxGeometry x="444" y="198" width="50" height="20" as="geometry" />
        </mxCell>
        <mxCell id="k4fH5lc6j6lI32jM6RB4-29" value="" style="rounded=0;whiteSpace=wrap;html=1;" vertex="1" parent="1">
          <mxGeometry x="370" y="80" width="150" height="110" as="geometry" />
        </mxCell>
        <mxCell id="k4fH5lc6j6lI32jM6RB4-30" value="&lt;u&gt;c2 : Customer&lt;/u&gt;" style="text;html=1;strokeColor=none;fillColor=none;align=center;verticalAlign=middle;whiteSpace=wrap;rounded=0;" vertex="1" parent="1">
          <mxGeometry x="380" y="80" width="130" height="20" as="geometry" />
        </mxCell>
        <mxCell id="k4fH5lc6j6lI32jM6RB4-31" value="" style="endArrow=none;html=1;entryX=1;entryY=0.182;entryDx=0;entryDy=0;entryPerimeter=0;" edge="1" parent="1" target="k4fH5lc6j6lI32jM6RB4-29">
          <mxGeometry width="50" height="50" relative="1" as="geometry">
            <mxPoint x="372" y="99.99999999999989" as="sourcePoint" />
            <mxPoint x="460" y="100" as="targetPoint" />
            <Array as="points">
              <mxPoint x="490" y="100" />
            </Array>
          </mxGeometry>
        </mxCell>
        <mxCell id="k4fH5lc6j6lI32jM6RB4-32" value="&lt;div align=&quot;left&quot;&gt;- Name :Jennifer&lt;/div&gt;&lt;div align=&quot;left&quot;&gt;&lt;br&gt;&lt;/div&gt;&lt;div align=&quot;left&quot;&gt;&lt;br&gt;&lt;/div&gt;&lt;div align=&quot;left&quot;&gt;&amp;nbsp;- Address : Vidya Nagar,&lt;/div&gt;&lt;div align=&quot;left&quot;&gt;Jaipur, Rajasthan&lt;br&gt;&lt;/div&gt;&lt;div align=&quot;left&quot;&gt;&lt;br&gt;&lt;/div&gt;&lt;div align=&quot;left&quot;&gt;&lt;br&gt;&lt;/div&gt;" style="text;html=1;strokeColor=none;fillColor=none;align=left;verticalAlign=middle;whiteSpace=wrap;rounded=0;" vertex="1" parent="1">
          <mxGeometry x="370" y="120" width="150" height="70" as="geometry" />
        </mxCell>
        <mxCell id="k4fH5lc6j6lI32jM6RB4-33" style="edgeStyle=orthogonalEdgeStyle;rounded=0;orthogonalLoop=1;jettySize=auto;html=1;exitX=0.5;exitY=1;exitDx=0;exitDy=0;" edge="1" parent="1" source="k4fH5lc6j6lI32jM6RB4-29" target="k4fH5lc6j6lI32jM6RB4-29">
          <mxGeometry relative="1" as="geometry" />
        </mxCell>
        <mxCell id="k4fH5lc6j6lI32jM6RB4-95" style="edgeStyle=orthogonalEdgeStyle;rounded=0;orthogonalLoop=1;jettySize=auto;html=1;exitX=0.5;exitY=1;exitDx=0;exitDy=0;" edge="1" parent="1" source="k4fH5lc6j6lI32jM6RB4-41" target="k4fH5lc6j6lI32jM6RB4-63">
          <mxGeometry relative="1" as="geometry" />
        </mxCell>
        <mxCell id="k4fH5lc6j6lI32jM6RB4-41" value="" style="rounded=0;whiteSpace=wrap;html=1;" vertex="1" parent="1">
          <mxGeometry x="120" y="340" width="150" height="200" as="geometry" />
        </mxCell>
        <mxCell id="k4fH5lc6j6lI32jM6RB4-42" value="Challang:Movie" style="text;html=1;strokeColor=none;fillColor=none;align=center;verticalAlign=middle;whiteSpace=wrap;rounded=0;fontStyle=4" vertex="1" parent="1">
          <mxGeometry x="130" y="340" width="130" height="20" as="geometry" />
        </mxCell>
        <mxCell id="k4fH5lc6j6lI32jM6RB4-43" value="&lt;div align=&quot;left&quot;&gt;&lt;br&gt;&lt;/div&gt;&lt;div align=&quot;left&quot;&gt;+ Date : 30_11_2020&lt;br&gt;&lt;/div&gt;&lt;div align=&quot;left&quot;&gt;&lt;br&gt;&lt;/div&gt;&lt;div align=&quot;left&quot;&gt;+ Venue : INOX&lt;/div&gt;&lt;div align=&quot;left&quot;&gt;&lt;br&gt;&lt;/div&gt;&lt;div align=&quot;left&quot;&gt;+ timing : 9:30 - 12 pm&lt;/div&gt;&lt;div align=&quot;left&quot;&gt;&lt;br&gt;&lt;/div&gt;&lt;div align=&quot;left&quot;&gt;+ No_of_tickets : 1&lt;br&gt;&lt;/div&gt;&lt;div align=&quot;left&quot;&gt;&lt;br&gt;&lt;/div&gt;&lt;div align=&quot;left&quot;&gt;&lt;br&gt;&lt;/div&gt;" style="text;html=1;strokeColor=none;fillColor=none;align=left;verticalAlign=middle;whiteSpace=wrap;rounded=0;" vertex="1" parent="1">
          <mxGeometry x="120" y="400" width="150" height="80" as="geometry" />
        </mxCell>
        <mxCell id="k4fH5lc6j6lI32jM6RB4-44" style="edgeStyle=orthogonalEdgeStyle;rounded=0;orthogonalLoop=1;jettySize=auto;html=1;exitX=0.5;exitY=1;exitDx=0;exitDy=0;" edge="1" parent="1" source="k4fH5lc6j6lI32jM6RB4-41" target="k4fH5lc6j6lI32jM6RB4-41">
          <mxGeometry relative="1" as="geometry" />
        </mxCell>
        <mxCell id="k4fH5lc6j6lI32jM6RB4-45" value="" style="endArrow=none;html=1;exitX=0;exitY=0.25;exitDx=0;exitDy=0;entryX=1;entryY=0.25;entryDx=0;entryDy=0;" edge="1" parent="1">
          <mxGeometry width="50" height="50" relative="1" as="geometry">
            <mxPoint x="120" y="362.5" as="sourcePoint" />
            <mxPoint x="270" y="362.5" as="targetPoint" />
          </mxGeometry>
        </mxCell>
        <mxCell id="k4fH5lc6j6lI32jM6RB4-46" value="" style="endArrow=none;html=1;exitX=0;exitY=0.75;exitDx=0;exitDy=0;entryX=1;entryY=0.75;entryDx=0;entryDy=0;" edge="1" parent="1">
          <mxGeometry width="50" height="50" relative="1" as="geometry">
            <mxPoint x="120" y="499" as="sourcePoint" />
            <mxPoint x="270" y="499" as="targetPoint" />
            <Array as="points">
              <mxPoint x="210" y="499" />
            </Array>
          </mxGeometry>
        </mxCell>
        <mxCell id="k4fH5lc6j6lI32jM6RB4-47" value="&lt;font style=&quot;font-size: 14px&quot;&gt;+ updateseatavailable()&lt;br&gt;&lt;/font&gt;" style="text;html=1;align=center;verticalAlign=middle;resizable=0;points=[];autosize=1;" vertex="1" parent="1">
          <mxGeometry x="115" y="510" width="160" height="20" as="geometry" />
        </mxCell>
        <mxCell id="k4fH5lc6j6lI32jM6RB4-97" style="edgeStyle=orthogonalEdgeStyle;rounded=0;orthogonalLoop=1;jettySize=auto;html=1;exitX=0.5;exitY=1;exitDx=0;exitDy=0;entryX=0.5;entryY=0;entryDx=0;entryDy=0;" edge="1" parent="1" source="k4fH5lc6j6lI32jM6RB4-55" target="k4fH5lc6j6lI32jM6RB4-83">
          <mxGeometry relative="1" as="geometry" />
        </mxCell>
        <mxCell id="k4fH5lc6j6lI32jM6RB4-55" value="" style="rounded=0;whiteSpace=wrap;html=1;" vertex="1" parent="1">
          <mxGeometry x="370" y="339" width="150" height="200" as="geometry" />
        </mxCell>
        <mxCell id="k4fH5lc6j6lI32jM6RB4-56" value="Lawyer:Movie" style="text;html=1;strokeColor=none;fillColor=none;align=center;verticalAlign=middle;whiteSpace=wrap;rounded=0;fontStyle=4" vertex="1" parent="1">
          <mxGeometry x="380" y="339" width="130" height="20" as="geometry" />
        </mxCell>
        <mxCell id="k4fH5lc6j6lI32jM6RB4-57" value="&lt;div align=&quot;left&quot;&gt;&lt;br&gt;&lt;/div&gt;&lt;div align=&quot;left&quot;&gt;+ Date : 30_11_2020&lt;br&gt;&lt;/div&gt;&lt;div align=&quot;left&quot;&gt;&lt;br&gt;&lt;/div&gt;&lt;div align=&quot;left&quot;&gt;+ Venue : Fun Cinemas&lt;br&gt;&lt;/div&gt;&lt;div align=&quot;left&quot;&gt;&lt;br&gt;&lt;/div&gt;&lt;div align=&quot;left&quot;&gt;+ timing : 9:30 - 12 pm&lt;/div&gt;&lt;div align=&quot;left&quot;&gt;&lt;br&gt;&lt;/div&gt;&lt;div align=&quot;left&quot;&gt;+ No_of_tickets : 1&lt;br&gt;&lt;/div&gt;&lt;div align=&quot;left&quot;&gt;&lt;br&gt;&lt;/div&gt;&lt;div align=&quot;left&quot;&gt;&lt;br&gt;&lt;/div&gt;" style="text;html=1;strokeColor=none;fillColor=none;align=left;verticalAlign=middle;whiteSpace=wrap;rounded=0;" vertex="1" parent="1">
          <mxGeometry x="371.5" y="399" width="150" height="80" as="geometry" />
        </mxCell>
        <mxCell id="k4fH5lc6j6lI32jM6RB4-58" style="edgeStyle=orthogonalEdgeStyle;rounded=0;orthogonalLoop=1;jettySize=auto;html=1;exitX=0.5;exitY=1;exitDx=0;exitDy=0;" edge="1" parent="1" source="k4fH5lc6j6lI32jM6RB4-55" target="k4fH5lc6j6lI32jM6RB4-55">
          <mxGeometry relative="1" as="geometry" />
        </mxCell>
        <mxCell id="k4fH5lc6j6lI32jM6RB4-59" value="" style="endArrow=none;html=1;exitX=0;exitY=0.25;exitDx=0;exitDy=0;entryX=1;entryY=0.25;entryDx=0;entryDy=0;" edge="1" parent="1">
          <mxGeometry width="50" height="50" relative="1" as="geometry">
            <mxPoint x="370" y="361.5" as="sourcePoint" />
            <mxPoint x="520" y="361.5" as="targetPoint" />
          </mxGeometry>
        </mxCell>
        <mxCell id="k4fH5lc6j6lI32jM6RB4-60" value="" style="endArrow=none;html=1;exitX=0;exitY=0.75;exitDx=0;exitDy=0;entryX=1;entryY=0.75;entryDx=0;entryDy=0;" edge="1" parent="1">
          <mxGeometry width="50" height="50" relative="1" as="geometry">
            <mxPoint x="370" y="498" as="sourcePoint" />
            <mxPoint x="520" y="498" as="targetPoint" />
            <Array as="points">
              <mxPoint x="460" y="498" />
            </Array>
          </mxGeometry>
        </mxCell>
        <mxCell id="k4fH5lc6j6lI32jM6RB4-61" value="&lt;font style=&quot;font-size: 14px&quot;&gt;+ updateseatavailable()&lt;br&gt;&lt;/font&gt;" style="text;html=1;align=center;verticalAlign=middle;resizable=0;points=[];autosize=1;" vertex="1" parent="1">
          <mxGeometry x="365" y="510" width="160" height="20" as="geometry" />
        </mxCell>
        <mxCell id="k4fH5lc6j6lI32jM6RB4-62" value="" style="rounded=0;whiteSpace=wrap;html=1;" vertex="1" parent="1">
          <mxGeometry x="120" y="570" width="150" height="90" as="geometry" />
        </mxCell>
        <mxCell id="k4fH5lc6j6lI32jM6RB4-63" value="x1 : cancellation" style="text;html=1;strokeColor=none;fillColor=none;align=center;verticalAlign=middle;whiteSpace=wrap;rounded=0;fontStyle=4" vertex="1" parent="1">
          <mxGeometry x="130" y="570" width="130" height="20" as="geometry" />
        </mxCell>
        <mxCell id="k4fH5lc6j6lI32jM6RB4-65" style="edgeStyle=orthogonalEdgeStyle;rounded=0;orthogonalLoop=1;jettySize=auto;html=1;exitX=0.5;exitY=1;exitDx=0;exitDy=0;" edge="1" parent="1" source="k4fH5lc6j6lI32jM6RB4-62" target="k4fH5lc6j6lI32jM6RB4-62">
          <mxGeometry relative="1" as="geometry" />
        </mxCell>
        <mxCell id="k4fH5lc6j6lI32jM6RB4-66" value="" style="endArrow=none;html=1;exitX=0;exitY=0.25;exitDx=0;exitDy=0;entryX=1;entryY=0.25;entryDx=0;entryDy=0;" edge="1" parent="1" source="k4fH5lc6j6lI32jM6RB4-62" target="k4fH5lc6j6lI32jM6RB4-62">
          <mxGeometry width="50" height="50" relative="1" as="geometry">
            <mxPoint x="30" y="630" as="sourcePoint" />
            <mxPoint x="80" y="580" as="targetPoint" />
          </mxGeometry>
        </mxCell>
        <mxCell id="k4fH5lc6j6lI32jM6RB4-72" value="" style="endArrow=none;html=1;exitX=0;exitY=0.5;exitDx=0;exitDy=0;entryX=1;entryY=0.5;entryDx=0;entryDy=0;" edge="1" parent="1" source="k4fH5lc6j6lI32jM6RB4-62" target="k4fH5lc6j6lI32jM6RB4-62">
          <mxGeometry width="50" height="50" relative="1" as="geometry">
            <mxPoint x="170" y="660" as="sourcePoint" />
            <mxPoint x="220" y="610" as="targetPoint" />
          </mxGeometry>
        </mxCell>
        <mxCell id="k4fH5lc6j6lI32jM6RB4-73" value="&lt;font style=&quot;font-size: 14px&quot;&gt;+ ReturnCancellation()&lt;/font&gt;" style="text;html=1;strokeColor=none;fillColor=none;align=center;verticalAlign=middle;whiteSpace=wrap;rounded=0;" vertex="1" parent="1">
          <mxGeometry x="102.5" y="630" width="185" height="20" as="geometry" />
        </mxCell>
        <mxCell id="k4fH5lc6j6lI32jM6RB4-74" style="edgeStyle=orthogonalEdgeStyle;rounded=0;orthogonalLoop=1;jettySize=auto;html=1;exitX=0.5;exitY=1;exitDx=0;exitDy=0;" edge="1" parent="1" source="k4fH5lc6j6lI32jM6RB4-73" target="k4fH5lc6j6lI32jM6RB4-73">
          <mxGeometry relative="1" as="geometry" />
        </mxCell>
        <mxCell id="k4fH5lc6j6lI32jM6RB4-82" value="" style="rounded=0;whiteSpace=wrap;html=1;" vertex="1" parent="1">
          <mxGeometry x="371.5" y="570" width="150" height="90" as="geometry" />
        </mxCell>
        <mxCell id="k4fH5lc6j6lI32jM6RB4-83" value="x2 : cancellation" style="text;html=1;strokeColor=none;fillColor=none;align=center;verticalAlign=middle;whiteSpace=wrap;rounded=0;fontStyle=4" vertex="1" parent="1">
          <mxGeometry x="381.5" y="570" width="130" height="20" as="geometry" />
        </mxCell>
        <mxCell id="k4fH5lc6j6lI32jM6RB4-84" style="edgeStyle=orthogonalEdgeStyle;rounded=0;orthogonalLoop=1;jettySize=auto;html=1;exitX=0.5;exitY=1;exitDx=0;exitDy=0;" edge="1" parent="1" source="k4fH5lc6j6lI32jM6RB4-82" target="k4fH5lc6j6lI32jM6RB4-82">
          <mxGeometry relative="1" as="geometry" />
        </mxCell>
        <mxCell id="k4fH5lc6j6lI32jM6RB4-85" value="" style="endArrow=none;html=1;exitX=0;exitY=0.25;exitDx=0;exitDy=0;entryX=1;entryY=0.25;entryDx=0;entryDy=0;" edge="1" parent="1" source="k4fH5lc6j6lI32jM6RB4-82" target="k4fH5lc6j6lI32jM6RB4-82">
          <mxGeometry width="50" height="50" relative="1" as="geometry">
            <mxPoint x="281.5" y="630" as="sourcePoint" />
            <mxPoint x="331.5" y="580" as="targetPoint" />
          </mxGeometry>
        </mxCell>
        <mxCell id="k4fH5lc6j6lI32jM6RB4-86" value="" style="endArrow=none;html=1;exitX=0;exitY=0.5;exitDx=0;exitDy=0;entryX=1;entryY=0.5;entryDx=0;entryDy=0;" edge="1" parent="1" source="k4fH5lc6j6lI32jM6RB4-82" target="k4fH5lc6j6lI32jM6RB4-82">
          <mxGeometry width="50" height="50" relative="1" as="geometry">
            <mxPoint x="421.5" y="660" as="sourcePoint" />
            <mxPoint x="471.5" y="610" as="targetPoint" />
          </mxGeometry>
        </mxCell>
        <mxCell id="k4fH5lc6j6lI32jM6RB4-87" value="&lt;font style=&quot;font-size: 14px&quot;&gt;+ ReturnCancellation()&lt;/font&gt;" style="text;html=1;strokeColor=none;fillColor=none;align=center;verticalAlign=middle;whiteSpace=wrap;rounded=0;" vertex="1" parent="1">
          <mxGeometry x="354" y="630" width="185" height="20" as="geometry" />
        </mxCell>
        <mxCell id="k4fH5lc6j6lI32jM6RB4-88" style="edgeStyle=orthogonalEdgeStyle;rounded=0;orthogonalLoop=1;jettySize=auto;html=1;exitX=0.5;exitY=1;exitDx=0;exitDy=0;" edge="1" parent="1" source="k4fH5lc6j6lI32jM6RB4-87" target="k4fH5lc6j6lI32jM6RB4-87">
          <mxGeometry relative="1" as="geometry" />
        </mxCell>
        <mxCell id="k4fH5lc6j6lI32jM6RB4-89" value="cancels " style="text;html=1;align=center;verticalAlign=middle;resizable=0;points=[];autosize=1;" vertex="1" parent="1">
          <mxGeometry x="200" y="540" width="60" height="20" as="geometry" />
        </mxCell>
        <mxCell id="k4fH5lc6j6lI32jM6RB4-92" value="" style="endArrow=classic;html=1;" edge="1" parent="1">
          <mxGeometry width="50" height="50" relative="1" as="geometry">
            <mxPoint x="260" y="545" as="sourcePoint" />
            <mxPoint x="260" y="555" as="targetPoint" />
          </mxGeometry>
        </mxCell>
        <mxCell id="k4fH5lc6j6lI32jM6RB4-93" value="" style="endArrow=classic;html=1;" edge="1" parent="1">
          <mxGeometry width="50" height="50" relative="1" as="geometry">
            <mxPoint x="509" y="550" as="sourcePoint" />
            <mxPoint x="509" y="560" as="targetPoint" />
          </mxGeometry>
        </mxCell>
        <mxCell id="k4fH5lc6j6lI32jM6RB4-94" value="cancels " style="text;html=1;align=center;verticalAlign=middle;resizable=0;points=[];autosize=1;" vertex="1" parent="1">
          <mxGeometry x="451" y="546" width="60" height="20" as="geometry" />
        </mxCell>
        <mxCell id="k4fH5lc6j6lI32jM6RB4-98" value="" style="endArrow=none;html=1;exitX=0.5;exitY=0;exitDx=0;exitDy=0;" edge="1" parent="1" source="k4fH5lc6j6lI32jM6RB4-42">
          <mxGeometry width="50" height="50" relative="1" as="geometry">
            <mxPoint x="170" y="350" as="sourcePoint" />
            <mxPoint x="195" y="310" as="targetPoint" />
          </mxGeometry>
        </mxCell>
        <mxCell id="k4fH5lc6j6lI32jM6RB4-99" value="" style="endArrow=none;html=1;exitX=0.5;exitY=0;exitDx=0;exitDy=0;" edge="1" parent="1" source="k4fH5lc6j6lI32jM6RB4-56">
          <mxGeometry width="50" height="50" relative="1" as="geometry">
            <mxPoint x="460" y="350" as="sourcePoint" />
            <mxPoint x="445" y="310" as="targetPoint" />
          </mxGeometry>
        </mxCell>
      </root>
    </mxGraphModel>
  </diagram>
</mxfile>
